# xmcd
#
# Track frame offsets:
#  150
#  10037
#  21272
#  35257
#  48990
#  58740
#  71727
#  89570
#  100410
#  110850
#  124210
#  136472
#  153752
#  166432
#  177032
#  193400
#  207550
#  222287
#  233922
#  246552
#  260355
#  270065
#  276590
#  294835
#
# Disc length: 4083 seconds
#
# Revision: 6
# Processed by: cddbd v1.5.1PL2 Copyright (c) Steve Scherf et al.
# Submitted via: Collectorz.com_Music_Collector 6.11
#
DISCID=6e0ff118
DTITLE=Various Artist - Blues Anytime I&II - An Anthology of British Blues [CD 1)
DYEAR=1992
DGENRE=Blues
TTITLE0=John Mayall and The Bluesbreakers - I'm Your Witchdoctor
TTITLE1=Eric Clapton - Snake Drive
TTITLE2=T. S. McPhee - Ain't Gonna Cry No More
TTITLE3=Savoy Brown Blues Band - I Tried
TTITLE4=Eric Clapton - Tribute To Elmore
TTITLE5=Jo Ann Kelly - I Feel So Good
TTITLE6=John Mayall and The Bluesbreakers - Telephone Blues
TTITLE7=T. S. McPhee - You Don't Love Me
TTITLE8=Eric Clapton - West Coast Idea
TTITLE9=Jo Ann Kelly - Ain't Seen No Whisky
TTITLE10=Stone's Masonry - Flapjacks
TTITLE11=Savoy Brown Blues Band - Cold Blooded
TTITLE12=John Mayall and The Bluesbreakers - On Top Of The World
TTITLE13=T. S. McPhee - Someone To Love Me
TTITLE14=Savoy Brown Blues Band - Can't Quit You Baby
TTITLE15=Eric Clapton - Page, Jimmy - Draggin' My Tail
TTITLE16=Dharma Blues Band - Dealing With The Devil
TTITLE17=Jeremy Spencer - Who's Knocking
TTITLE18=Eric Clapton - Page, Jimmy - Frieght Loader
TTITLE19=Jeremy Spencer - Look Down At My Woman
TTITLE20=Dharma Blues Band - Roll'em Pete
TTITLE21=Eric Clapton - Page, Jimmy - Choker
TTITLE22=Savoy Brown Blues Band - True Blue
TTITLE23=T. S. McPhee - When You Got A Good Friend
EXTD=
EXTT0=
EXTT1=
EXTT2=
EXTT3=
EXTT4=
EXTT5=
EXTT6=
EXTT7=
EXTT8=
EXTT9=
EXTT10=
EXTT11=
EXTT12=
EXTT13=
EXTT14=
EXTT15=
EXTT16=
EXTT17=
EXTT18=
EXTT19=
EXTT20=
EXTT21=
EXTT22=
EXTT23=
PLAYORDER=
